#!OML:ASF X:\für Bonn\!DataBase\2005_08_11_Bastian_Final\c3d\Bastian.ASF
:FULLY-SPECIFIED
:DEGREES
173
root -1.85101 17.3586 5.49847 169.497 -3.1158 -173.208
lowerback 4.21694 -3.69891 2.72888
upperback 5.41067 -5.33132 0.877452
thorax 3.07032 -2.7675 -0.542073
lowerneck -8.29343 -5.28345 -2.25612
upperneck -2.19921 -6.59476 8.33914
head 1.12604 -2.99712 2.82244
rclavicle -5.30879e-014 1.19271e-014
rhumerus -40.4616 22.4221 -98.3797
rradius 39.4304
rwrist -34.9127
rhand -36.1652 4.21521
rfingers 7.12502
rthumb -9.26922 -25.561
lclavicle -5.30879e-014 1.19271e-014
lhumerus -22.6819 -34.7964 93.0863
lradius 35.0952
lwrist -10.0496
lhand -43.0473 1.37458
lfingers 7.12502
lthumb -15.9039 30.7415
rfemur -4.25469 4.64447 25.3273
rtibia 47.5397
rfoot -15.2462 -14.2462
rtoes -10.8724
lfemur 2.09587 5.05012 -12.3459
ltibia 29.4312
lfoot -15.509 1.16387
ltoes 1.00005
174
root -1.81534 17.3515 5.48127 169.757 -2.7318 -173.325
lowerback 3.95451 -3.6189 2.61738
upperback 5.26377 -5.20747 0.870333
thorax 3.07457 -2.69934 -0.503323
lowerneck -8.21143 -5.19817 -2.21653
upperneck -2.1886 -6.48976 8.20809
head 1.10158 -2.95221 2.77747
rclavicle 3.09359e-014 -2.38542e-015
rhumerus -40.438 22.1432 -98.5153
rradius 39.6087
rwrist -34.9161
rhand -36.2215 4.39892
rfingers 7.12502
rthumb -9.32349 -25.3749
lclavicle 3.09359e-014 -2.38542e-015
lhumerus -24.0465 -33.1568 94.0067
lradius 33.1292
lwrist -9.29462
lhand -42.9801 2.18007
lfingers 7.12502
lthumb -15.8392 31.5522
rfemur -3.73661 4.76554 25.382
rtibia 46.3667
rfoot -15.9851 -13.9554
rtoes -11.8325
lfemur 1.87105 5.11491 -12.3441
ltibia 29.6215
lfoot -15.7428 1.36988
ltoes 0.980526
175
root -1.77876 17.3482 5.46509 169.998 -2.40052 -173.461
lowerback 3.7393 -3.55189 2.49415
upperback 5.1049 -5.09694 0.835452
thorax 3.03794 -2.63786 -0.481417
lowerneck -8.09106 -5.11894 -2.1379
upperneck -2.18785 -6.39585 8.05635
head 1.06554 -2.91456 2.71878
rclavicle 1.20513e-014 7.95139e-016
rhumerus -40.4646 21.8777 -98.7185
rradius 39.8051
rwrist -34.9523
rhand -36.2583 4.56243
rfingers 7.12502
rthumb -9.35905 -25.2098
lclavicle 1.20513e-014 7.95139e-016
lhumerus -25.3887 -31.7314 94.8746
lradius 31.2033
lwrist -7.83842
lhand -42.9133 3.0551
lfingers 7.12502
lthumb -15.7749 32.4323
rfemur -3.28226 4.77611 25.4041
rtibia 45.3194
rfoot -16.6916 -13.5761
rtoes -13.0687
lfemur 1.68732 5.07936 -12.3841
ltibia 29.7348
lfoot -15.945 1.63199
ltoes 1.18099
176
root -1.74105 17.3481 5.44945 170.244 -2.09562 -173.599
lowerback 3.51379 -3.48042 2.34905
upperback 4.96248 -4.98398 0.810108
thorax 3.02694 -2.57662 -0.438873
lowerneck -7.97081 -5.04869 -2.12091
upperneck -2.22782 -6.30388 7.97256
head 1.02236 -2.87577 2.6943
rclavicle 1.79279e-014 -2.42517e-014
rhumerus -40.5338 21.6566 -98.9126
rradius 40.0812
rwrist -35.0279
rhand -36.2659 4.72763
rfingers 7.12502
rthumb -9.36633 -25.0443
lclavicle 1.79279e-014 -2.42517e-014
lhumerus -26.685 -30.5633 95.7697
lradius 29.3384
lwrist -5.71618
lhand -42.8737 4.06648
lfingers 7.12502
lthumb -15.7368 33.4467
rfemur -2.90297 4.74814 25.4363
rtibia 44.3958
rfoot -17.3946 -13.2032
rtoes -14.4935
lfemur 1.529 5.10117 -12.4108
ltibia 29.7765
lfoot -16.0827 1.86261
ltoes 1.07736
177
root -1.70223 17.3488 5.43408 170.441 -1.84096 -173.731
lowerback 3.35691 -3.42808 2.21372
upperback 4.82238 -4.89526 0.769017
thorax 2.97723 -2.52809 -0.412144
lowerneck -7.83992 -4.9809 -2.07765
upperneck -2.25869 -6.21852 7.87536
head 0.979149 -2.84083 2.66036
rclavicle 2.10091e-014 -4.77083e-015
rhumerus -40.6802 21.4453 -99.1376
rradius 40.4406
rwrist -35.0999
rhand -36.2486 4.78851
rfingers 7.12502
rthumb -9.34964 -24.9841
lclavicle 2.10091e-014 -4.77083e-015
lhumerus -27.9566 -29.5365 96.6206
lradius 27.5015
lwrist -3.04444
lhand -42.8155 4.99597
lfingers 7.12502
lthumb -15.6807 34.3806
rfemur -2.53385 4.68019 25.4697
rtibia 43.5866
rfoot -18.0869 -12.8292
rtoes -15.396
lfemur 1.44296 5.06244 -12.4376
ltibia 29.7536
lfoot -16.1933 2.08454
ltoes 1.15815
178
root -1.66264 17.3506 5.41927 170.632 -1.62632 -173.841
lowerback 3.21962 -3.37783 2.12439
upperback 4.6938 -4.80875 0.695959
thorax 2.92217 -2.47904 -0.442228
lowerneck -7.77092 -4.91854 -1.98408
upperneck -2.2609 -6.14309 7.81781
head 0.956362 -2.80685 2.6287
rclavicle 5.72313e-014 -2.54444e-014
rhumerus -40.8134 21.1971 -99.4239
rradius 40.7372
rwrist -35.1723
rhand -36.2643 4.89474
rfingers 7.12502
rthumb -9.36485 -24.8772
lclavicle 5.72313e-014 -2.54444e-014
lhumerus -29.2463 -28.9321 97.474
lradius 25.7802
lwrist 0.25873
lhand -42.7397 5.95293
lfingers 7.12502
lthumb -15.6077 35.3432
rfemur -2.21704 4.54468 25.5144
rtibia 42.8769
rfoot -18.7773 -12.4698
rtoes -16.0693
lfemur 1.36218 5.03162 -12.4322
ltibia 29.6937
lfoot -16.2567 2.27789
ltoes 1.22312
